<mxfile host="Electron" modified="2024-03-23T04:26:35.194Z" agent="Mozilla/5.0 (Windows NT 10.0; Win64; x64) AppleWebKit/537.36 (KHTML, like Gecko) draw.io/23.1.5 Chrome/120.0.6099.109 Electron/28.1.0 Safari/537.36" etag="RehVd4AX3lFp2cjzmvuz" version="23.1.5" type="device">
  <diagram name="Página-1" id="rw2uUUTgCUBJ8bcjUHdy">
    <mxGraphModel dx="593" dy="1999" grid="1" gridSize="10" guides="1" tooltips="1" connect="1" arrows="1" fold="1" page="1" pageScale="1" pageWidth="827" pageHeight="1169" background="#CCE5FF" math="0" shadow="0">
      <root>
        <mxCell id="0" />
        <mxCell id="1" parent="0" />
        <mxCell id="vPiom-ruhhg9zqcw9-RC-1" value="&lt;b style=&quot;font-size: 16px;&quot;&gt;&lt;font color=&quot;#000000&quot;&gt;&lt;span style=&quot;&quot;&gt;&lt;font style=&quot;font-size: 16px;&quot;&gt;8 Hacer un programa para ingresar por teclado el importe de una venta sin el&lt;br&gt;descuento y el importe de esa misma venta con el descuento aplicado y luego&lt;br&gt;informar por pantalla el porcentaje de descuento aplicada a la misma.&lt;br&gt;Ejemplo A. Si el importe de la venta sin descuento es $1500 y el importe de la&lt;br&gt;venta con descuento es $1200 entonces el porcentaje de descuento aplicado&lt;br&gt;fue el 20%.&lt;br&gt;&lt;/font&gt;&lt;/span&gt;Importante: Le sugerimos que haga una prueba con este ejemplo, ya que&lt;br&gt;muchos lo resuelven y concluyen que el descuento es el 80%. Eso NO es el&lt;br&gt;descuento. Si el descuento fuera de 80% entonces una venta de $1500 se&lt;br&gt;cobraría tan solo $300.&lt;br&gt;&lt;br&gt;Ejemplo B. Si el importe de la venta sin descuento es $500 y el importe de la&lt;br&gt;venta con descuento es $500 entonces el porcentaje de descuento aplicado fue&lt;br&gt;el 0%.&amp;nbsp;&lt;/font&gt;&lt;/b&gt;&lt;b style=&quot;font-size: 16px;&quot;&gt;&lt;font color=&quot;#000000&quot;&gt;&lt;br&gt;&lt;/font&gt;&lt;/b&gt;" style="text;strokeColor=none;align=left;fillColor=none;html=1;verticalAlign=middle;whiteSpace=wrap;rounded=0;" vertex="1" parent="1">
          <mxGeometry x="1150" y="-1150" width="690" height="300" as="geometry" />
        </mxCell>
        <mxCell id="vPiom-ruhhg9zqcw9-RC-22" value="" style="group" vertex="1" connectable="0" parent="1">
          <mxGeometry x="1160" y="-840" width="540" height="375" as="geometry" />
        </mxCell>
        <mxCell id="vPiom-ruhhg9zqcw9-RC-3" value="" style="strokeWidth=2;html=1;shape=mxgraph.flowchart.start_2;whiteSpace=wrap;rounded=0;labelBackgroundColor=none;strokeColor=#000000;align=center;verticalAlign=middle;fontFamily=Helvetica;fontSize=12;fontColor=default;fillColor=#d5e8d4;aspect=fixed;" vertex="1" parent="vPiom-ruhhg9zqcw9-RC-22">
          <mxGeometry x="250" width="40" height="40" as="geometry" />
        </mxCell>
        <mxCell id="vPiom-ruhhg9zqcw9-RC-5" value="" style="shape=trapezoid;perimeter=trapezoidPerimeter;whiteSpace=wrap;html=1;fixedSize=1;rounded=0;labelBackgroundColor=none;strokeColor=#121211;strokeWidth=2;align=center;verticalAlign=middle;fontFamily=Helvetica;fontSize=12;fontColor=default;fillColor=#d5e8d4;direction=west;container=1;aspect=fixed;" vertex="1" parent="vPiom-ruhhg9zqcw9-RC-22">
          <mxGeometry x="175" y="70" width="190" height="67" as="geometry">
            <mxRectangle x="-1020" y="-650" width="50" height="40" as="alternateBounds" />
          </mxGeometry>
        </mxCell>
        <mxCell id="vPiom-ruhhg9zqcw9-RC-8" value="&lt;font size=&quot;1&quot; color=&quot;#000000&quot;&gt;&lt;b style=&quot;font-size: 16px;&quot;&gt;importe_venta, importe_descuento&lt;/b&gt;&lt;/font&gt;" style="text;strokeColor=none;align=center;fillColor=none;html=1;verticalAlign=middle;whiteSpace=wrap;rounded=0;aspect=fixed;" vertex="1" parent="vPiom-ruhhg9zqcw9-RC-5">
          <mxGeometry x="5" y="-7" width="180" height="74" as="geometry" />
        </mxCell>
        <mxCell id="vPiom-ruhhg9zqcw9-RC-9" value="&lt;b&gt;&lt;font color=&quot;#000000&quot; style=&quot;font-size: 16px;&quot;&gt;I&lt;/font&gt;&lt;/b&gt;" style="text;strokeColor=none;align=center;fillColor=none;html=1;verticalAlign=middle;whiteSpace=wrap;rounded=0;aspect=fixed;" vertex="1" parent="vPiom-ruhhg9zqcw9-RC-22">
          <mxGeometry x="240" y="5" width="60" height="30" as="geometry" />
        </mxCell>
        <mxCell id="vPiom-ruhhg9zqcw9-RC-10" value="" style="rounded=0;whiteSpace=wrap;html=1;labelBackgroundColor=none;strokeColor=#0f100e;strokeWidth=2;align=center;verticalAlign=middle;fontFamily=Helvetica;fontSize=12;fontColor=default;fillColor=#d5e8d4;aspect=fixed;" vertex="1" parent="vPiom-ruhhg9zqcw9-RC-22">
          <mxGeometry x="2.5" y="160" width="535" height="60" as="geometry" />
        </mxCell>
        <mxCell id="vPiom-ruhhg9zqcw9-RC-11" value="&lt;span style=&quot;background-color: rgb(204, 229, 255);&quot;&gt;descuento_aplicado = ((importe_venta - importe_descuento) * 100&lt;span style=&quot;font-family: &amp;quot;Söhne Mono&amp;quot;, Monaco, &amp;quot;Andale Mono&amp;quot;, &amp;quot;Ubuntu Mono&amp;quot;, monospace; font-size: 14px; text-align: left;&quot;&gt;) / importe_venta&lt;/span&gt;&lt;/span&gt;&lt;div style=&quot;text-align: left;&quot;&gt;&lt;br&gt;&lt;/div&gt;" style="text;strokeColor=none;align=center;fillColor=none;html=1;verticalAlign=middle;whiteSpace=wrap;rounded=0;fontStyle=1;fontColor=#000000;aspect=fixed;" vertex="1" parent="vPiom-ruhhg9zqcw9-RC-22">
          <mxGeometry y="160" width="540" height="80" as="geometry" />
        </mxCell>
        <mxCell id="vPiom-ruhhg9zqcw9-RC-14" value="" style="group;aspect=fixed;" vertex="1" connectable="0" parent="vPiom-ruhhg9zqcw9-RC-22">
          <mxGeometry x="180" y="250" width="180" height="125" as="geometry" />
        </mxCell>
        <mxCell id="vPiom-ruhhg9zqcw9-RC-4" value="" style="strokeWidth=2;html=1;shape=mxgraph.flowchart.start_2;whiteSpace=wrap;rounded=0;labelBackgroundColor=none;strokeColor=#000000;align=center;verticalAlign=middle;fontFamily=Helvetica;fontSize=12;fontColor=default;fillColor=#d5e8d4;aspect=fixed;" vertex="1" parent="vPiom-ruhhg9zqcw9-RC-14">
          <mxGeometry x="70" y="80" width="40" height="40" as="geometry" />
        </mxCell>
        <mxCell id="vPiom-ruhhg9zqcw9-RC-6" value="" style="shape=trapezoid;perimeter=trapezoidPerimeter;whiteSpace=wrap;html=1;fixedSize=1;rounded=0;labelBackgroundColor=none;strokeColor=#0F140C;strokeWidth=2;align=center;verticalAlign=middle;fontFamily=Helvetica;fontSize=12;fontColor=default;fillColor=#d5e8d4;aspect=fixed;" vertex="1" parent="vPiom-ruhhg9zqcw9-RC-14">
          <mxGeometry width="180" height="50" as="geometry" />
        </mxCell>
        <mxCell id="vPiom-ruhhg9zqcw9-RC-12" value="&lt;b&gt;&lt;font color=&quot;#000000&quot; style=&quot;font-size: 16px;&quot;&gt;descuento_aplicado&lt;/font&gt;&lt;/b&gt;" style="text;strokeColor=none;align=center;fillColor=none;html=1;verticalAlign=middle;whiteSpace=wrap;rounded=0;aspect=fixed;" vertex="1" parent="vPiom-ruhhg9zqcw9-RC-14">
          <mxGeometry y="10" width="180" height="30" as="geometry" />
        </mxCell>
        <mxCell id="vPiom-ruhhg9zqcw9-RC-13" value="&lt;b&gt;&lt;font color=&quot;#000000&quot; style=&quot;font-size: 16px;&quot;&gt;F&lt;/font&gt;&lt;/b&gt;" style="text;strokeColor=none;align=center;fillColor=none;html=1;verticalAlign=middle;whiteSpace=wrap;rounded=0;aspect=fixed;" vertex="1" parent="vPiom-ruhhg9zqcw9-RC-14">
          <mxGeometry x="45" y="75" width="90" height="50" as="geometry" />
        </mxCell>
        <mxCell id="vPiom-ruhhg9zqcw9-RC-17" value="" style="line;strokeWidth=2;direction=south;html=1;hachureGap=4;strokeColor=#000000;aspect=fixed;" vertex="1" parent="vPiom-ruhhg9zqcw9-RC-14">
          <mxGeometry x="85" y="50" width="10" height="30" as="geometry" />
        </mxCell>
        <mxCell id="vPiom-ruhhg9zqcw9-RC-16" value="" style="line;strokeWidth=2;direction=south;html=1;hachureGap=4;strokeColor=#000000;aspect=fixed;" vertex="1" parent="vPiom-ruhhg9zqcw9-RC-22">
          <mxGeometry x="265" y="40" width="10" height="30" as="geometry" />
        </mxCell>
        <mxCell id="vPiom-ruhhg9zqcw9-RC-18" value="" style="line;strokeWidth=2;direction=south;html=1;hachureGap=4;strokeColor=#000000;aspect=fixed;" vertex="1" parent="vPiom-ruhhg9zqcw9-RC-22">
          <mxGeometry x="265" y="220" width="10" height="30" as="geometry" />
        </mxCell>
        <mxCell id="vPiom-ruhhg9zqcw9-RC-19" value="" style="line;strokeWidth=2;direction=south;html=1;hachureGap=4;strokeColor=#000000;aspect=fixed;" vertex="1" parent="vPiom-ruhhg9zqcw9-RC-22">
          <mxGeometry x="265" y="137" width="10" height="23" as="geometry" />
        </mxCell>
      </root>
    </mxGraphModel>
  </diagram>
</mxfile>
